<?xml version="1.0" encoding="utf-8"?>
<!-- Generator: Adobe Illustrator 25.4.1, SVG Export Plug-In . SVG Version: 6.00 Build 0)  -->
<svg version="1.1" id="Layer_2" xmlns="http://www.w3.org/2000/svg" xmlns:xlink="http://www.w3.org/1999/xlink" x="0px" y="0px"
	 viewBox="0 0 371.8 356.4" style="enable-background:new 0 0 371.8 356.4;" xml:space="preserve">
<style type="text/css">
	.st0{fill:#3B4126;}
</style>
<g>
	<path class="st0" d="M145.1,210.6c2.4-0.7,20.5-7.2,34.2-12.4s23-8.5,26-10c3-1.6,3.6,0.6,1.1,5.5c-1.2,2.3-1.6,7.3-1.4,9.5
		c0.4,3.6,1.6,7.3,7.4,7c5.8-0.3,10.1-8,10.7-13.5c0.6-5.5-2.5-9-4.4-10.2c-1.8-1.1-3-3-0.4-3.7c2.5-0.7,10.4-4.5,19.9-8.8
		c9.5-4.2,14.3-7.2,18.1-9.6c3.8-2.4,3.7-1.7,3.7,0.8c0,2.5,1.8,3.5,5.8,3s10.6-6.6,13.6-9c3-2.4,3.5-1.4,5.4-0.1
		c1.8,1.3,3.2,2.7,5.2,0.4c2-2.3,10.6-8.9,13-10.7c2.4-1.8,2.3-3.8,1.3-4.5c-1-0.7-2.3-1-4.8,1c-2.5,2-6.2,6.4-10.2,8
		c-4,1.7-2.5-2.5-1.4-5.4c1.1-2.8-2.8-4.1-4.8-1.3c-2,2.8-4.7,7.5-8.2,11c-3.5,3.5-5.6,5.1-7.2,3.4c-1.6-1.7,1.4-7.5,3-10.6
		c1.6-3.1,1-4.9-0.7-5.2c-1.7-0.3-2.5-0.3-4.2,2.3c-1.7,2.5-5.9,10.2-15.5,15.8c-9.6,5.6-26.8,13.6-29.4,14.4
		c-2.5,0.8-3.1,0-2.5-3.1c0.6-3.1,2.5-8.2,8.8-21.5s13-23.4,15-27.1c2-3.7-2.5-5.6-4.8-2.3c-2.3,3.4-7.3,11.3-12.4,15
		c-5.1,3.7-4.8-2.3-3.7-5.9c1.1-3.7-2.8-5.4-5.1-2.5c-2.3,2.8-6.8,9.6-13,14.1c-6.2,4.5-4.8-5.4-4.8-11.6c0-6.2-1.7-7.3-3.4-5.1
		c-1.7,2.3-6.2,6.8-9,10.4s-2.5,1.4-1.7-2.8c0.8-4.2,13-54.5,20.6-81.6c7.6-27.1,12.4-40.9,25.7-40.9s11,10.4,14.1,9
		c2.3-1-1.4-14.1-15.1-14.1S209.7,23.9,206.7,32c-3,8-8.2,28.5-10.9,39.1c-2.7,10.6-19.6,74.8-20.8,79.8c-1.1,4.9,0.8,6.4,3,4.2
		c2.1-2.1,8.8-8.8,11.3-11.9c2.5-3.1,2.4-3.1,3.7,0.1c1.3,3.2,2.8,6.9,6.8,6.9s6.2-2.7,11.4-7.1c5.2-4.4,4.9-1.8,7.2,0.4
		c2.3,2.3,2.4,3,5.4,1.6c3-1.4,2.4,1.7,1,4.1c-1.4,2.4-4.1,8.5-8,17.1s-5.5,12.6-5.8,15.1c-0.3,2.5-0.6,1.6-4.9-0.3
		s-15.8-0.7-27.7,3.2c-11.9,4-20.9,9.3-29.1,15.5s-8.6,7.5-8.2,9S142.7,211.3,145.1,210.6z M209.5,201c0.1-3.8,1.6-7.5,2.4-10.5
		c1.1-4.1,6.2,3.5,6.2,6.1s-2.1,6.2-4.8,8.9C210.7,208.1,209.4,204.8,209.5,201z M157.8,199c3.5-2.7,11.4-6.6,16.3-8.4
		c4.9-1.8,15.5-4.6,18.4-4.6c3,0,6.9,0.3,3.2,1.7s-14.8,5.5-19.4,7.2c-8,2.9-15.9,6.1-19.1,6.8C154,202.2,154.2,201.7,157.8,199z"/>
	<path class="st0" d="M234.5,72c-7,9.4,0.5,23.1,3.2,20.9c2.8-2.3-4.5-11.9,1.9-17.2c5.3-4.3,7.1,6.1,10.7,3.4
		C252,77.9,241.5,62.5,234.5,72z"/>
	<path class="st0" d="M261.4,91.2c2.4-0.1,2.8-2.5,3.8-5.5c1-3,2-7.4,5.4-15.5c3.4-8.1,4.3-9.5,6.6-8.9s1.4,3.1,1.4,6.7
		s1.6,1.7,4.1-3s0-10.1-2.8-11.3c-2.8-1.1-5.8,0-8.7,4.4c-2.8,4.4-6.5,13.6-9.3,20.9C260.4,83.3,258,91.5,261.4,91.2z"/>
	<path class="st0" d="M362.7,207.7c-5,1.4-42.3,15.8-79.8,27.5s-101.6,31.1-123.6,38.2s-100.6,32.8-122.6,43S5.8,330.1,5.4,336.8
		c-0.2,3.6,4.3,12.6,30.3,11.8c29.5-0.8,105.8-12.9,124-15.3c18.2-2.4,45.4-6,44.9-9.1c-0.5-3.4-2.6-0.2-27,3.1
		c-24.4,3.3-82.5,11.4-117.4,15.8c-34,4.2-46.4,1-48.3-5.7c-1.9-4.3,12.5-11.8,40.2-22.8c27.7-11,95.6-33.5,124.1-42.3
		c28.4-8.8,91.6-27.7,115.9-35.6c24.4-7.9,64.5-22.7,70-24.6S367.7,206.2,362.7,207.7z"/>
	<path class="st0" d="M197.7,221.3c2.8-0.4,3.5,2.5,4.4,1.3c0.8-1.3-1.8-5.5-6.9-5.1c-6.5,0.6-8.9,5.7-11.7,14.4
		c-2.8,8.6-2.1,14.4-1.7,17.9c0.5,3.8,1.5,6.5,3.5,6.5c2,0,1.6-2.5,1.5-4.9c-0.1-2.4-1.7-8.3,1.3-17.8
		C190.9,224.1,192.9,222,197.7,221.3z"/>
</g>
</svg>
